<?xml version="1.0" standalone="no"?>
<!DOCTYPE svg PUBLIC "-//W3C//DTD SVG 20010904//EN"
 "http://www.w3.org/TR/2001/REC-SVG-20010904/DTD/svg10.dtd">
<svg version="1.0" xmlns="http://www.w3.org/2000/svg"
 width="500.000000pt" height="500.000000pt" viewBox="0 0 500.000000 500.000000"
 preserveAspectRatio="xMidYMid meet">
<metadata>
Created by potrace 1.11, written by Peter Selinger 2001-2013
</metadata>
<g transform="translate(0.000000,500.000000) scale(0.100000,-0.100000)"
fill="#000000" stroke="none">
<path d="M0 3360 l0 -1645 858 -858 857 -857 1643 2 1642 3 -2500 2500 -2500
2500 0 -1645z"/>
<path d="M4397 4392 l-597 -597 600 -600 600 -600 0 1198 c0 658 -1 1197 -3
1197 -1 0 -271 -269 -600 -598z"/>
<path d="M2027 4263 c-268 -269 -489 -491 -490 -495 -3 -12 -60 45 3011 -3003
238 -236 437 -432 443 -433 5 -2 9 372 9 986 l0 989 -259 254 c-143 140 -696
688 -1231 1219 -534 531 -977 966 -983 968 -7 1 -232 -217 -500 -485z"/>
</g>
</svg>
